<svg xmlns="http://www.w3.org/2000/svg" viewBox="0 0 16 16" width="16" height="16"><path fill="currentcolor" d="m0 1.75c0-.966.784-1.75 1.75-1.75h12.5c.966 0 1.75.784 1.75 1.75v9.5a1.75 1.75 0 01-1.75 1.75h-6.19l-2.573 2.573a1.458 1.458 0 01-2.487-1.03v-1.543h-1.25a1.75 1.75 0 01-1.75-1.75zm1.75-.25a.25.25 0 00-.25.25v9.5c0 .138.112.25.25.25h2a.75.75 0 01.75.75v2.19l2.72-2.72a.749.749 0 01.53-.22h6.5a.25.25 0 00.25-.25v-9.5a.25.25 0 00-.25-.25zm7 2.25v2.5a.75.75 0 01-1.5 0v-2.5a.75.75 0 011.5 0zm.25 5.25a1 1 0 11-2 0 1 1 0 012 0z"></path></svg>
